<svg width="257" height="38" viewBox="0 0 257 38" fill="none" xmlns="http://www.w3.org/2000/svg">
<path d="M61.3186 7.2948L70.9929 31.1541C69.7099 31.4357 68.4026 31.5859 67.0904 31.6024C66.3385 31.6032 65.5878 31.5408 64.8458 31.4159L62.9988 26.6447H53.3117L51.4551 31.4159C50.5375 31.5233 49.6145 31.5736 48.691 31.5664C47.6077 31.598 46.5261 31.4589 45.4844 31.1541L55.2388 7.2948C56.2737 7.12759 57.3209 7.05313 58.3685 7.07227C59.3564 7.05747 60.3436 7.13193 61.3186 7.2948ZM55.1811 21.9847H61.1165L58.92 16.4216L58.1055 14.0916L57.3744 16.4216L55.1811 21.9847Z" fill="#8A2943"/>
<path d="M93.2668 7.09644C94.301 7.09953 95.3338 7.17497 96.3579 7.32224V31.3124C94.4379 31.6415 92.4871 31.7425 90.5443 31.6135L80.466 17.8955L79.6099 16.4654L79.7734 18.1932V31.4106C78.7643 31.5577 77.7464 31.6332 76.7271 31.6364C75.7338 31.6234 74.7421 31.548 73.7578 31.4106V7.52185C74.6737 7.26938 75.6153 7.12661 76.5636 7.09644C77.566 7.03153 78.5719 7.05014 79.5714 7.15207L89.6144 21.1679L90.5091 22.6339L90.3455 20.7163V7.33205C91.3132 7.1884 92.289 7.1097 93.2668 7.09644Z" fill="#8A2943"/>
<path d="M113.985 32.0922C112.129 32.1084 110.285 31.7962 108.533 31.1693C106.922 30.5977 105.437 29.7081 104.163 28.5514C102.928 27.4221 101.95 26.0318 101.296 24.4772C100.626 22.8472 100.281 21.0973 100.281 19.3297C100.281 17.5621 100.626 15.8122 101.296 14.1821C101.953 12.6234 102.931 11.2272 104.163 10.0883C105.437 8.92296 106.921 8.02257 108.533 7.43764C110.282 6.79932 112.128 6.48137 113.985 6.49846C115.84 6.48604 117.684 6.79816 119.436 7.42128C121.05 7.98683 122.536 8.87704 123.806 10.0392C125.032 11.1724 126.003 12.5621 126.654 14.1134C127.34 15.7579 127.686 17.5293 127.67 19.3166C127.68 21.0673 127.334 22.8011 126.654 24.4085C125.996 25.9667 125.019 27.3627 123.787 28.5023C122.508 29.6703 121.016 30.5709 119.397 31.153C117.661 31.7858 115.829 32.1037 113.985 32.0922ZM113.985 26.7941C114.937 26.8365 115.888 26.6763 116.777 26.3236C117.666 25.971 118.473 25.4336 119.147 24.7455C120.408 23.2179 121.1 21.2846 121.1 19.2871C121.1 17.2896 120.408 15.3564 119.147 13.8287C117.733 12.5235 115.893 11.8008 113.986 11.8008C112.079 11.8008 110.24 12.5235 108.825 13.8287C107.564 15.3564 106.873 17.2896 106.873 19.2871C106.873 21.2846 107.564 23.2179 108.825 24.7455C109.499 25.4331 110.306 25.9703 111.194 26.323C112.082 26.6756 113.033 26.836 113.985 26.7941Z" fill="#8A2943"/>
<path d="M146.928 21.8715L153.02 31.1522C151.332 31.4999 149.611 31.6504 147.89 31.6005L146.344 31.5645L140.979 23.1118H140.694L137.728 23.0725V31.414C136.734 31.5807 135.727 31.6562 134.72 31.6398C133.685 31.6497 132.652 31.5742 131.629 31.414V7.66918C132.822 7.45102 134.244 7.2634 135.897 7.10632C137.549 6.94924 139.053 6.87397 140.409 6.88052C141.805 6.87964 143.2 6.99896 144.577 7.23721C145.839 7.43776 147.057 7.8631 148.175 8.49383C149.248 9.08615 150.135 9.97577 150.734 11.0602C151.333 12.1446 151.62 13.3797 151.561 14.6231C151.549 15.5111 151.411 16.3927 151.154 17.241C150.853 18.2314 150.331 19.1374 149.631 19.8885C148.866 20.7241 147.947 21.3979 146.928 21.8715ZM137.741 11.727V18.4519L140.947 18.4911C142.14 18.5855 143.325 18.2304 144.279 17.493C144.635 17.18 144.919 16.7901 145.109 16.3514C145.299 15.9128 145.391 15.4364 145.379 14.9569C145.394 14.4868 145.298 14.0198 145.1 13.5951C144.902 13.1704 144.607 12.8002 144.24 12.5157C143.256 11.849 142.084 11.5326 140.906 11.6157C139.854 11.6157 138.796 11.655 137.741 11.727Z" fill="#8A2943"/>
<path d="M171.72 19.0917C172.675 19.4028 173.564 19.8933 174.343 20.5381C175.005 21.077 175.516 21.7848 175.824 22.5899C176.327 23.9396 176.366 25.4237 175.934 26.7989C175.503 28.1741 174.626 29.3589 173.448 30.159C171.59 31.4484 168.737 32.093 164.89 32.093C162.004 32.1156 159.122 31.8901 156.273 31.4189V7.70687C159.064 7.19255 161.894 6.9417 164.729 6.95749C171.638 6.95749 175.094 9.26128 175.096 13.8689C175.094 16.4257 173.969 18.1667 171.72 19.0917ZM165.178 11.4669C164.31 11.4669 163.361 11.504 162.331 11.5782V17.0268H165.422C166.423 17.1113 167.424 16.8534 168.266 16.2937C168.57 16.0295 168.808 15.6967 168.964 15.3218C169.119 14.9468 169.186 14.5401 169.161 14.1339C169.172 13.7449 169.085 13.3594 168.907 13.0152C168.728 12.671 168.466 12.3799 168.144 12.1705C167.246 11.637 166.212 11.3887 165.175 11.4571L165.178 11.4669ZM165.499 27.5836C168.566 27.5836 170.1 26.5365 170.1 24.4421C170.116 24.0057 170.022 23.5725 169.826 23.184C169.631 22.7955 169.341 22.4647 168.984 22.2234C168.008 21.6378 166.882 21.3632 165.752 21.4347H162.331V27.4822C163.361 27.5585 164.417 27.5967 165.499 27.5967V27.5836Z" fill="#8A2943"/>
<path d="M192.868 7.2948L202.543 31.1541C201.26 31.4357 199.952 31.5859 198.64 31.6024C197.888 31.6031 197.138 31.5407 196.396 31.4159L194.526 26.6447H184.852L182.982 31.4159C182.065 31.5233 181.142 31.5736 180.218 31.5664C179.135 31.5974 178.054 31.4583 177.012 31.1541L186.776 7.2948C187.811 7.12759 188.858 7.05313 189.905 7.07227C190.898 7.0567 191.889 7.13116 192.868 7.2948ZM186.728 21.9847H192.663L190.47 16.4216L189.662 14.0949L188.931 16.4249L186.728 21.9847Z" fill="#8A2943"/>
<path d="M224.801 7.09648C225.835 7.09957 226.868 7.17501 227.892 7.32228V31.3125C225.972 31.6415 224.022 31.7426 222.079 31.6135L211.997 17.8955L211.141 16.4589L211.305 18.1868V31.4106C210.295 31.5589 209.276 31.6354 208.255 31.6397C207.263 31.6268 206.272 31.5514 205.289 31.4139V7.52517C206.205 7.27127 207.146 7.1274 208.095 7.09648C209.097 7.03151 210.103 7.05012 211.103 7.15212L221.146 21.1679L222.04 22.634L221.877 20.7163V7.33209C222.845 7.18818 223.822 7.10947 224.801 7.09648Z" fill="#8A2943"/>
<path d="M245.901 18.5522L256.999 31.1903C255.477 31.4068 253.941 31.5074 252.404 31.4914L249.197 31.4161L241.181 22.1715L239.363 23.4118V31.4161C238.367 31.5666 237.362 31.6421 236.355 31.6419C235.336 31.6388 234.318 31.5634 233.309 31.4161V7.3343C234.276 7.18068 235.254 7.10518 236.233 7.1085C237.28 7.11159 238.326 7.18702 239.363 7.3343V17.1025C241.14 15.7759 242.798 14.2898 244.317 12.6618C245.857 10.9558 247.27 9.13452 248.543 7.21322C249.505 7.13795 250.509 7.10196 251.593 7.10196C252.951 7.09541 254.309 7.1708 255.659 7.32775C252.946 11.5237 249.66 15.3032 245.901 18.5522Z" fill="#8A2943"/>
<path d="M22.9737 18.8774V23.0498H18.8917C18.0828 23.0511 17.2917 22.8075 16.6186 22.3498C15.9454 21.8921 15.4204 21.2409 15.1099 20.4787C14.7995 19.7164 14.7176 18.8773 14.8747 18.0675C15.0317 17.2577 15.4206 16.5136 15.9921 15.9294C16.5636 15.3453 17.2921 14.9473 18.0853 14.7857C18.8786 14.6242 19.7009 14.7065 20.4484 15.0221C21.1958 15.3377 21.8347 15.8724 22.2842 16.5587C22.7338 17.245 22.9737 18.0519 22.9737 18.8774Z" fill="#8A2943"/>
<path d="M25.917 0.0351562H11.8753C8.84801 0.0394931 5.94628 1.27049 3.80805 3.45753C1.66982 5.64457 0.470107 8.60863 0.47266 11.6981V26.0772C0.470957 29.1661 1.67105 32.1293 3.80919 34.3156C5.94732 36.502 8.84857 37.7325 11.8753 37.7369H37.3197V11.6981C37.3223 8.6092 36.123 5.64563 33.9854 3.45869C31.8479 1.27174 28.947 0.0403597 25.9202 0.0351562H25.917ZM29.2198 29.4347H18.8946C16.4608 29.4271 14.1075 28.5446 12.248 26.9421C10.3885 25.3396 9.14177 23.1197 8.72683 20.6723C8.31189 18.2249 8.75526 15.7066 9.97906 13.5596C11.2029 11.4127 13.1288 9.77455 15.4186 8.93289V5.78809C15.4187 5.73958 15.4328 5.69217 15.4592 5.65185C15.4856 5.61153 15.5232 5.5801 15.5671 5.56154C15.611 5.54298 15.6594 5.53813 15.706 5.54758C15.7526 5.55703 15.7954 5.58037 15.8291 5.61465L17.4869 7.33268C17.532 7.37864 17.5931 7.40445 17.6568 7.40445C17.7206 7.40445 17.7817 7.37864 17.8268 7.33268L17.8524 7.3065L18.7022 6.14478C18.7206 6.11839 18.744 6.09603 18.7711 6.07905C18.7982 6.06207 18.8283 6.05081 18.8597 6.04593C18.8911 6.04104 18.9231 6.04264 18.9539 6.05063C18.9847 6.05862 19.0136 6.07283 19.0389 6.09242C19.059 6.10646 19.0764 6.12422 19.0902 6.14478L19.9431 7.3065C19.9814 7.35858 20.0384 7.393 20.1015 7.40221C20.1328 7.40676 20.1646 7.40499 20.1952 7.39699C20.2258 7.38899 20.2546 7.37493 20.2798 7.35559L20.3087 7.3294L21.9665 5.61138C22.0116 5.56541 22.0727 5.5396 22.1364 5.5396C22.2002 5.5396 22.2613 5.56541 22.3064 5.61138C22.3517 5.65856 22.377 5.72203 22.3769 5.78809V8.94599C24.3798 9.68206 26.1115 11.0308 27.3355 12.8083C28.5596 14.5857 29.2165 16.7053 29.2166 18.8778L29.2198 29.4347Z" fill="#8A2943"/>
</svg>
