<svg width="178" height="51" viewBox="0 0 178 51" fill="none" xmlns="http://www.w3.org/2000/svg">
<g clip-path="url(#clip0_1406_32662)">
<path d="M24.9988 50.579C16.4273 50.6331 4.8096 39.0253 1.51218 31.4839V31.4568L1.44547 31.3032C-0.226586 27.2616 -0.615695 23.8747 1.22312 19.447C4.02027 12.6868 18.106 -3.01687 28.2696 0.514493C35.5337 3.03657 65.3639 21.513 36.7366 44.8936C33.0678 47.8695 29.3613 50.5541 24.9988 50.579ZM12.156 29.5489C15.4601 35.4194 22.8976 42.2721 28.732 38.4721C40.6544 30.7072 40.4898 23.2154 34.084 16.7488C26.642 9.23903 21.9749 10.5193 16.0404 16.803C14.6352 18.291 13.4501 19.2664 12.0381 22.0413C11.022 24.0486 10.813 27.169 12.156 29.5511V29.5489Z" fill="#53B7D1"/>
<path d="M77.9396 36.6888C79.0647 36.6888 80.1023 36.6663 81.0525 36.6211C82.0026 36.576 82.9795 36.4781 83.983 36.3276C84.0537 36.3095 84.1273 36.3059 84.1993 36.3171C84.2714 36.3283 84.3405 36.354 84.4027 36.3927C84.4648 36.4314 84.5187 36.4823 84.5612 36.5425C84.6037 36.6027 84.6339 36.6708 84.6501 36.743C84.6658 36.8175 84.6658 36.8944 84.6501 36.9688V40.3557C84.6501 40.744 84.4136 41.0142 83.9408 41.1663C82.7803 41.5305 81.5895 41.7867 80.3832 41.9317C79.103 42.1077 77.8129 42.1982 76.521 42.2027C74.4447 42.2615 72.377 41.9095 70.4331 41.1663C68.8552 40.5325 67.464 39.4976 66.3931 38.161C65.3047 36.7454 64.5317 35.1068 64.1273 33.3584C63.6299 31.2476 63.3909 29.0824 63.4158 26.9121V24.8394C63.3913 22.6704 63.6227 20.5062 64.1051 18.3931C64.4949 16.6475 65.2536 15.0089 66.3286 13.5905C67.3878 12.2515 68.7727 11.2164 70.3464 10.5875C72.2904 9.84457 74.3581 9.49258 76.4343 9.5511C78.8512 9.56801 81.2512 9.96327 83.5495 10.723C83.7535 10.7741 83.9388 10.8838 84.0831 11.0391C84.1786 11.1859 84.2254 11.36 84.2165 11.5358V14.7827C84.2398 14.9271 84.2062 15.0751 84.123 15.1946C84.0398 15.3142 83.9137 15.3957 83.7718 15.4217C83.6985 15.4376 83.6227 15.4376 83.5495 15.4217C82.7194 15.3042 81.8166 15.2139 80.8412 15.1507C79.8659 15.0875 78.8742 15.0581 77.8662 15.0626C76.6487 15.0285 75.4358 15.2276 74.2909 15.6497C73.3528 16.0215 72.5427 16.6644 71.9607 17.4989C71.32 18.4546 70.8886 19.5387 70.6955 20.6781C70.4231 22.1723 70.2965 23.6902 70.3175 25.2097V26.6073C70.296 28.1206 70.4264 29.6322 70.7066 31.1186C70.9139 32.2558 71.3606 33.334 72.0163 34.2797C72.6227 35.1044 73.4468 35.7378 74.3932 36.1063C75.5327 36.525 76.7393 36.7233 77.9507 36.6911L77.9396 36.6888ZM89.7974 10.8065C89.7974 10.3233 90.0198 10.084 90.4645 10.084H95.9698C96.1343 10.0601 96.3014 10.1035 96.4344 10.2047C96.5674 10.3059 96.6554 10.4566 96.6791 10.6236C96.688 10.6842 96.688 10.7459 96.6791 10.8065V34.1171C96.6306 34.7951 96.7856 35.4722 97.1238 36.0589C97.3574 36.3017 97.6439 36.4854 97.9602 36.5952C98.2765 36.705 98.6137 36.7379 98.9448 36.6911H109.466C109.548 36.679 109.631 36.6833 109.711 36.7039C109.791 36.7245 109.866 36.761 109.932 36.8111C109.997 36.8613 110.053 36.9242 110.095 36.9962C110.137 37.0682 110.164 37.1479 110.176 37.2307C110.185 37.2906 110.185 37.3515 110.176 37.4114V40.7486C110.176 41.3191 109.924 41.6201 109.422 41.6517C107.791 41.8023 105.927 41.9302 103.828 42.0356C101.729 42.1409 99.5526 42.1936 97.2994 42.1936C96.1125 42.2159 94.9272 42.0946 93.7686 41.8324C92.9119 41.645 92.112 41.2517 91.4361 40.6853C90.8316 40.1366 90.3928 39.4249 90.171 38.6329C89.8975 37.6198 89.7709 36.5717 89.7952 35.5215L89.7974 10.8065ZM121.193 40.8818C121.208 40.9861 121.199 41.0925 121.166 41.1926C121.133 41.2926 121.078 41.3836 121.005 41.4581C120.931 41.5326 120.842 41.5888 120.743 41.622C120.645 41.6552 120.54 41.6646 120.437 41.6495H115.065C114.978 41.6622 114.89 41.6575 114.805 41.6356C114.72 41.6137 114.64 41.575 114.57 41.5218C114.5 41.4685 114.441 41.4017 114.396 41.3252C114.351 41.2487 114.322 41.164 114.309 41.076C114.3 41.0115 114.3 40.9462 114.309 40.8818V10.8968C114.309 10.3549 114.561 10.084 115.065 10.084H120.437C120.941 10.084 121.193 10.3549 121.193 10.8968V40.8818ZM141.974 36.6888C143.102 36.6888 144.139 36.6663 145.087 36.6211C146.034 36.576 147.011 36.4781 148.017 36.3276C148.088 36.3095 148.161 36.3059 148.233 36.3171C148.305 36.3283 148.375 36.354 148.437 36.3927C148.499 36.4314 148.553 36.4823 148.595 36.5425C148.638 36.6027 148.668 36.6708 148.684 36.743C148.697 36.8139 148.697 36.8867 148.684 36.9575V40.3444C148.684 40.735 148.448 41.006 147.973 41.1572C146.812 41.5206 145.621 41.7767 144.415 41.9227C143.134 42.0965 141.843 42.187 140.551 42.1936C138.475 42.2502 136.408 41.8975 134.465 41.155C132.888 40.5243 131.497 39.4934 130.425 38.161C129.34 36.7443 128.569 35.106 128.166 33.3584C127.668 31.2476 127.429 29.0824 127.454 26.9121V24.8371C127.43 22.6681 127.661 20.5039 128.144 18.3908C128.534 16.6456 129.293 15.0071 130.367 13.5882C131.426 12.25 132.811 11.2156 134.385 10.5875C136.328 9.84498 138.395 9.49226 140.471 9.54884C142.888 9.56543 145.288 9.96148 147.586 10.723C147.79 10.7741 147.975 10.8838 148.119 11.0391C148.215 11.1852 148.261 11.3585 148.253 11.5335V14.7691C148.276 14.9136 148.242 15.0615 148.159 15.1811C148.076 15.3006 147.95 15.3822 147.808 15.4081C147.735 15.4228 147.659 15.4228 147.586 15.4081C146.756 15.2907 145.853 15.2004 144.877 15.1372C143.902 15.0739 142.91 15.0446 141.902 15.0491C140.685 15.0129 139.472 15.2113 138.327 15.6339C137.389 16.0065 136.578 16.6492 135.995 17.4831C135.358 18.4407 134.926 19.524 134.73 20.6622C134.459 22.1575 134.333 23.676 134.354 25.1961V26.5938C134.331 28.1108 134.462 29.6262 134.743 31.1163C134.949 32.2538 135.396 33.3323 136.052 34.2774C136.658 35.1024 137.483 35.7352 138.429 36.1018C139.568 36.5225 140.775 36.7216 141.987 36.6888H141.974ZM176.124 10.084C176.222 10.0741 176.321 10.0945 176.408 10.1424C176.495 10.1903 176.566 10.2635 176.611 10.3527C176.654 10.4486 176.668 10.555 176.653 10.6591C176.637 10.7632 176.593 10.8606 176.524 10.9397L167.021 25.2909L177.769 40.8479C177.826 40.9199 177.863 41.0066 177.874 41.0983C177.885 41.19 177.872 41.2831 177.834 41.3672C177.793 41.4661 177.72 41.5484 177.628 41.6011C177.536 41.6538 177.429 41.674 177.325 41.6585H171.063C170.805 41.6722 170.548 41.6267 170.31 41.5253C170.105 41.4079 169.936 41.2362 169.82 41.0285L160.718 26.9595V40.8931C160.742 41.0709 160.696 41.2515 160.59 41.395C160.484 41.5385 160.326 41.6333 160.151 41.6585C160.089 41.6674 160.026 41.6674 159.964 41.6585H154.59C154.415 41.6836 154.237 41.6371 154.095 41.5291C153.954 41.4211 153.861 41.2606 153.836 41.0827C153.825 41.02 153.825 40.9558 153.836 40.8931V10.8946C153.836 10.3527 154.087 10.0817 154.59 10.0817H159.964C160.466 10.0817 160.718 10.3527 160.718 10.8946V23.6088L169.207 10.6146C169.32 10.4464 169.473 10.3091 169.651 10.215C169.829 10.1209 170.027 10.0727 170.227 10.0749L176.124 10.084Z" fill="#141521"/>
</g>
<defs>
<clipPath id="clip0_1406_32662">
<rect width="177.878" height="50.5815" fill="white"/>
</clipPath>
</defs>
</svg>
