<svg width="249" height="44" viewBox="0 0 249 44" fill="none" xmlns="http://www.w3.org/2000/svg">
<path fill-rule="evenodd" clip-rule="evenodd" d="M37.4212 23.6989C37.4212 30.4465 35.8797 35.4781 32.7982 38.75C29.7168 42.022 24.9527 43.6638 18.5396 43.6638C12.5424 43.6638 7.99314 42.0259 4.89178 38.75C1.79042 35.4742 0.239251 30.5342 0.238281 23.9301V1.77217C0.239046 1.52273 0.338375 1.28371 0.514617 1.1072C0.69086 0.930681 0.929727 0.830984 1.17916 0.829834H12.0524C12.3019 0.830603 12.541 0.930177 12.7173 1.10677C12.8936 1.28337 12.9929 1.52262 12.9932 1.77217V24.4144C12.9932 27.1105 13.492 29.1871 14.5085 30.6515C15.0121 31.3198 15.6617 31.8643 16.4078 32.2432C17.1538 32.6222 17.9766 32.8257 18.8133 32.8382C19.6501 32.8507 20.4786 32.6718 21.2356 32.3153C21.9926 31.9587 22.6582 31.4339 23.1815 30.7809C24.1742 29.4062 24.6677 27.3814 24.6619 24.7067V20.4661H37.4168L37.4212 23.6989Z" fill="#203E7A"/>
<path fill-rule="evenodd" clip-rule="evenodd" d="M36.4393 17.9894H24.6602V1.81409C24.6613 1.55295 24.7655 1.30283 24.9502 1.11817C25.1349 0.933519 25.385 0.829273 25.6461 0.828125H27.4086C27.4102 3.48048 28.465 6.02365 30.3412 7.89847C32.2174 9.77329 34.7613 10.8263 37.4137 10.8259V17.9894H36.4393Z" fill="#203E7A"/>
<path fill-rule="evenodd" clip-rule="evenodd" d="M29.9219 0.828125H36.4411C36.7024 0.828892 36.9527 0.933015 37.1375 1.11775C37.3222 1.30249 37.4263 1.55283 37.4271 1.81408V8.33771C35.4378 8.33771 33.5299 7.54744 32.1232 6.14076C30.7165 4.73407 29.9262 2.8262 29.9262 0.83685L29.9219 0.828125Z" fill="#F4821F"/>
<path fill-rule="evenodd" clip-rule="evenodd" d="M69.0767 33.8224C76.2167 33.8224 79.6669 29.8432 79.6669 24.0054V9.93791H74.5572V23.8698C74.5161 25.3026 73.918 26.6629 72.8901 27.6619C71.8621 28.6608 70.4852 29.2196 69.0518 29.2196C67.6184 29.2196 66.2415 28.6608 65.2135 27.6619C64.1855 26.6629 63.5875 25.3026 63.5464 23.8698V9.93791H58.5V24.0462C58.5 29.8115 61.9457 33.8224 69.0857 33.8224H69.0767ZM110.506 33.3974V29.0202H99.1968L110.275 13.9579V9.94696H92.6401V14.3467H103.719L92.6356 29.3639V33.3974H110.506ZM134.377 33.8224C136.387 33.8683 138.371 33.3527 140.104 32.3334C141.837 31.3141 143.252 29.8316 144.189 28.0525L139.894 25.977C139.37 26.9931 138.579 27.8474 137.606 28.448C136.634 29.0487 135.516 29.3731 134.372 29.3865C132.402 29.2797 130.547 28.4215 129.189 26.9887C127.832 25.5558 127.076 23.6572 127.076 21.6835C127.076 19.7098 127.832 17.8112 129.189 16.3783C130.547 14.9454 132.402 14.0873 134.372 13.9805C135.514 14.0015 136.63 14.3296 137.601 14.9303C138.573 15.5311 139.365 16.3822 139.894 17.3945L144.198 15.2828C143.262 13.5053 141.847 12.0258 140.112 11.0123C138.378 9.99876 136.394 9.49183 134.386 9.54904C131.197 9.5005 128.118 10.7084 125.812 12.9118C123.507 15.1153 122.161 18.1372 122.065 21.3248C121.97 24.5124 123.132 27.6096 125.301 29.9472C127.47 32.2849 130.472 33.6752 133.658 33.8179C133.902 33.8179 134.142 33.8179 134.386 33.8179L134.377 33.8224ZM178.013 33.3974L168.969 9.93791H162.716L153.64 33.3974H159.338L160.812 29.4227H170.873L172.315 33.3974H178.013ZM169.503 25.0274H162.182L165.845 14.9301L169.503 25.0274ZM211.733 39.2849L203.141 24.4712C204.679 24.0999 206.037 23.198 206.976 21.9243C207.914 20.6506 208.374 19.0866 208.273 17.5075C208.31 16.5487 208.158 15.592 207.825 14.6921C207.492 13.7922 206.985 12.9668 206.333 12.2629C205.68 11.5591 204.896 10.9907 204.024 10.5902C203.152 10.1897 202.21 9.96501 201.251 9.92888C200.966 9.9108 200.681 9.9108 200.396 9.92888H189.404V33.3883H194.378V25.0636H198.036L205.976 39.2803L211.733 39.2849ZM199.641 20.6728H194.4V14.3422H199.628C200.043 14.2986 200.463 14.3372 200.864 14.456C201.265 14.5747 201.638 14.7713 201.963 15.0343C202.288 15.2974 202.558 15.6218 202.757 15.9892C202.956 16.3565 203.082 16.7595 203.125 17.1752C203.169 17.5908 203.13 18.011 203.011 18.4118C202.893 18.8125 202.696 19.1859 202.433 19.5107C202.17 19.8355 201.846 20.1053 201.478 20.3047C201.111 20.5041 200.708 20.6292 200.292 20.6728C200.071 20.6954 199.849 20.6954 199.628 20.6728H199.641ZM230.476 33.4019C237.828 33.4019 242.929 28.7625 242.929 21.6902C242.929 14.618 237.819 9.93338 230.476 9.93338H221.229V33.3929L230.476 33.4019ZM230.476 29.0066H226.221V14.3422H230.476C232.29 14.2077 234.084 14.7989 235.462 15.9859C236.841 17.1729 237.692 18.8587 237.828 20.6728C237.855 21.0084 237.855 21.3456 237.828 21.6812C237.87 22.6046 237.73 23.5272 237.414 24.3961C237.099 25.265 236.616 26.0632 235.991 26.7449C235.367 27.4267 234.615 27.9785 233.777 28.369C232.939 28.7594 232.032 28.9807 231.109 29.0202C230.893 29.0315 230.678 29.0315 230.462 29.0202L230.476 29.0066Z" fill="#233C7E"/>
<path fill-rule="evenodd" clip-rule="evenodd" d="M248.999 9.4994V9.57626C249.001 10.4415 248.746 11.2878 248.267 12.008C247.787 12.7283 247.105 13.2902 246.306 13.6225C245.507 13.9549 244.628 14.0427 243.779 13.875C242.93 13.7074 242.15 13.2916 241.538 12.6804C240.925 12.0693 240.508 11.2902 240.339 10.4417C240.169 9.59324 240.255 8.71359 240.586 7.91407C240.917 7.11454 241.477 6.43108 242.196 5.95021C242.916 5.46934 243.761 5.21265 244.627 5.21265H248.995L248.999 9.4994Z" fill="#233C7E"/>
</svg>
